Coordinates
version=1
nRows=37
nColumns=38
inDegrees=no

Units are S.I. units (second, meters, Newtons, ...)
If the header above contains a line with 'inDegrees', this indicates whether rotational values are in degrees (yes) or radians (no).

endheader
time	pelvis_tilt	pelvis_list	pelvis_rotation	pelvis_tx	pelvis_ty	pelvis_tz	hip_flexion_r	hip_adduction_r	hip_rotation_r	knee_angle_r	ankle_angle_r	subtalar_angle_r	mtp_angle_r	hip_flexion_l	hip_adduction_l	hip_rotation_l	knee_angle_l	ankle_angle_l	subtalar_angle_l	mtp_angle_l	lumbar_extension	lumbar_bending	lumbar_rotation	arm_flex_r	arm_add_r	arm_rot_r	elbow_flex_r	pro_sup_r	wrist_flex_r	wrist_dev_r	arm_flex_l	arm_add_l	arm_rot_l	elbow_flex_l	pro_sup_l	wrist_flex_l	wrist_dev_l
0	3.11048	1.4432	-1.31646	0.510477	-0.581729	0.933184	0.430118	-0.192604	-0.344116	0.434667	0.180104	0	0	-0.319013	0.0166501	-0.0476143	0.106134	0.28422	0	0	-0.237258	-0.00724947	-0.20694	-0.145106	-0.237357	-0.241538	0.909814	0.58864	0	0	0.140745	-0.560662	-0.37516	2.38105	0.371628	0	0
0.01	3.11894	1.44971	-1.32693	0.511502	-0.57291	0.930666	0.429674	-0.184283	-0.345788	0.377045	0.179898	0	0	-0.318703	0.0166949	-0.0528492	0.11496	0.294735	0	0	-0.233675	-0.0121421	-0.199647	-0.141728	-0.235762	-0.237294	0.91205	0.584577	0	0	0.122511	-0.545411	-0.346291	2.32267	0.36726	0	0
0.02	3.12638	1.45588	-1.33819	0.512715	-0.563726	0.92812	0.428176	-0.174126	-0.343164	0.321126	0.178095	0	0	-0.320165	0.0164421	-0.0611183	0.122242	0.305403	0	0	-0.230672	-0.0166377	-0.190685	-0.139011	-0.234225	-0.234174	0.915422	0.581031	0	0	0.106917	-0.530482	-0.318455	2.26112	0.371903	0	0
0.03	3.13103	1.46177	-1.34602	0.513952	-0.554267	0.925597	0.424764	-0.16302	-0.337377	0.266515	0.173988	0	0	-0.322257	0.0149096	-0.0701164	0.12968	0.316678	0	0	-0.227559	-0.0204489	-0.182313	-0.136527	-0.232349	-0.232018	0.918384	0.578481	0	0	0.0941032	-0.516733	-0.291025	2.19535	0.386699	0	0
0.04	3.14052	1.46699	-1.35846	0.51518	-0.544625	0.923139	0.419545	-0.152139	-0.327785	0.21485	0.16662	0	0	-0.325549	0.0133336	-0.079516	0.137144	0.327849	0	0	-0.22513	-0.0242662	-0.174242	-0.134276	-0.230527	-0.230196	0.921363	0.577979	0	0	0.0841874	-0.504676	-0.263865	2.12556	0.41025	0	0
0.05	-3.12448	1.47123	-1.37926	0.516309	-0.534811	0.920778	0.412796	-0.142649	-0.31624	0.168283	0.156687	0	0	-0.330811	0.0123579	-0.0881343	0.143227	0.337503	0	0	-0.223845	-0.0281622	-0.166923	-0.132266	-0.229191	-0.227874	0.924451	0.577258	0	0	0.0769922	-0.494024	-0.237413	2.05299	0.437278	0	0
0.06	-3.10849	1.47419	-1.39532	0.517219	-0.52471	0.918577	0.40443	-0.134569	-0.3085	0.129302	0.146957	0	0	-0.337349	0.0097513	-0.0952429	0.14947	0.346399	0	0	-0.22352	-0.0307926	-0.162373	-0.129881	-0.227894	-0.225184	0.925965	0.578037	0	0	0.0718718	-0.485705	-0.210673	1.9786	0.459305	0	0
0.07	-3.09752	1.4763	-1.40378	0.517873	-0.514361	0.916496	0.397435	-0.128537	-0.310111	0.103942	0.141411	0	0	-0.344121	0.00528808	-0.101324	0.157055	0.355386	0	0	-0.223745	-0.031854	-0.160704	-0.127413	-0.226835	-0.221873	0.926823	0.579268	0	0	0.0684268	-0.480234	-0.182472	1.90316	0.469781	0	0
0.08	-3.08239	1.47789	-1.41493	0.518286	-0.50379	0.914506	0.394065	-0.125554	-0.322638	0.095986	0.141402	0	0	-0.352509	0.00109499	-0.102859	0.162262	0.361362	0	0	-0.224444	-0.0323718	-0.161329	-0.124939	-0.226075	-0.218365	0.927535	0.57933	0	0	0.0656118	-0.47778	-0.153052	1.83006	0.455408	0	0
0.09	-3.07516	1.47923	-1.41728	0.5185	-0.492913	0.912636	0.3918	-0.123408	-0.338266	0.0977743	0.140316	0	0	-0.360413	-0.00436745	-0.104877	0.169548	0.367459	0	0	-0.224699	-0.0307904	-0.162743	-0.123602	-0.226143	-0.215044	0.92916	0.578961	0	0	0.0643729	-0.475689	-0.121309	1.75409	0.443322	0	0
0.1	-3.07721	1.48178	-1.40983	0.518517	-0.481608	0.910802	0.39245	-0.122414	-0.357319	0.10991	0.139344	0	0	-0.367011	-0.0105751	-0.106597	0.177171	0.372474	0	0	-0.222501	-0.0270151	-0.165223	-0.123641	-0.226834	-0.212105	0.931803	0.578202	0	0	0.0629221	-0.469388	-0.0915458	1.6753	0.43493	0	0
0.11	-3.07652	1.48454	-1.40424	0.518372	-0.469954	0.909049	0.394768	-0.12376	-0.379151	0.132896	0.140384	0	0	-0.373684	-0.0165411	-0.106591	0.184256	0.375525	0	0	-0.219678	-0.0229826	-0.169647	-0.124238	-0.227653	-0.208857	0.935054	0.577599	0	0	0.0616345	-0.455067	-0.0701658	1.59363	0.437934	0	0
0.12	-3.05479	1.48575	-1.41872	0.518233	-0.458149	0.907397	0.397054	-0.128842	-0.403147	0.166403	0.14554	0	0	-0.381749	-0.0215549	-0.105988	0.192189	0.377175	0	0	-0.219504	-0.0216968	-0.176602	-0.123727	-0.227909	-0.203962	0.937424	0.576431	0	0	0.0609164	-0.443644	-0.0498002	1.51052	0.469723	0	0
0.13	-3.02157	1.48617	-1.44364	0.518057	-0.446045	0.905849	0.397307	-0.135502	-0.424325	0.201017	0.153297	0	0	-0.390369	-0.0265141	-0.104825	0.201216	0.377923	0	0	-0.220142	-0.0214623	-0.185525	-0.12363	-0.228119	-0.197597	0.939617	0.573712	0	0	0.0609535	-0.434634	-0.0286345	1.42329	0.529651	0	0
0.14	-2.9961	1.48765	-1.46108	0.517925	-0.433533	0.904351	0.39516	-0.138935	-0.434318	0.224874	0.158001	0	0	-0.397743	-0.0324816	-0.104502	0.210689	0.376795	0	0	-0.218487	-0.0204477	-0.194085	-0.125166	-0.228844	-0.190356	0.942088	0.563311	0	0	0.063335	-0.418095	-0.0225814	1.3192	0.752175	0	0
0.15	-2.97017	1.48729	-1.48001	0.518202	-0.420979	0.903158	0.38973	-0.138861	-0.433218	0.238035	0.153275	0	0	-0.406477	-0.0392583	-0.10518	0.220891	0.372446	0	0	-0.219556	-0.0203104	-0.201666	-0.125461	-0.228111	-0.184893	0.942539	0.563083	0	0	0.0657661	-0.413918	0.00950867	1.23562	0.732835	0	0
0.16	-2.97477	1.48901	-1.47043	0.518762	-0.408388	0.902139	0.387384	-0.134251	-0.425459	0.245098	0.134543	0	0	-0.408488	-0.0494291	-0.113616	0.240463	0.371049	0	0	-0.218187	-0.0171575	-0.206703	-0.126316	-0.228229	-0.179063	0.9432	0.558564	0	0	0.0737687	-0.395369	0.0127822	1.12483	0.949098	0	0
0.17	-3.0258	1.48929	-1.4207	0.519301	-0.396224	0.901345	0.384676	-0.123693	-0.414927	0.24837	0.106771	0	0	-0.408716	-0.0495254	-0.103197	0.263528	0.355048	0	0	-0.219311	-0.0100693	-0.207492	-0.124349	-0.228826	-0.173883	0.942033	0.557015	0	0	0.0800381	-0.383038	0.0355706	1.02922	0.985481	0	0
0.18	-3.06078	1.48909	-1.38333	0.520434	-0.383466	0.901047	0.379911	-0.114334	-0.405506	0.253626	0.0797518	0	0	-0.407053	-0.0627618	-0.112597	0.291784	0.34747	0	0	-0.220862	-0.00478034	-0.209685	-0.123382	-0.228429	-0.168746	0.939034	0.555077	0	0	0.0884409	-0.365292	0.0471453	0.927128	1.05008	0	0
0.19	-3.11338	1.48762	-1.32835	0.52164	-0.370649	0.901034	0.375766	-0.1053	-0.401055	0.267884	0.0623231	0	0	-0.401193	-0.0792022	-0.123614	0.329551	0.338909	0	0	-0.223544	0.00219712	-0.212121	-0.121565	-0.228277	-0.16272	0.934717	0.553162	0	0	0.09627	-0.346082	0.0499136	0.823534	1.13837	0	0
0.2	-3.12402	1.48464	-1.30974	0.523211	-0.357244	0.901596	0.370494	-0.102747	-0.402045	0.291585	0.0542177	0	0	-0.394983	-0.109636	-0.148497	0.372168	0.337569	0	0	-0.227877	0.00542121	-0.218591	-0.121174	-0.227453	-0.155084	0.929623	0.550682	0	0	0.104047	-0.327789	0.0439499	0.720171	1.25994	0	0
0.21	3.06455	1.47908	-1.21503	0.52356	-0.344612	0.902069	0.367533	-0.0956749	-0.409501	0.320764	0.0534227	0	0	-0.379896	-0.117995	-0.138837	0.429204	0.31011	0	0	-0.233825	0.0192733	-0.221606	-0.116948	-0.230246	-0.145486	0.925134	0.545937	0	0	0.110388	-0.306953	0.0231412	0.618178	1.41807	0	0
0.22	3.02232	1.47271	-1.17005	0.524446	-0.3316	0.903174	0.360607	-0.0917487	-0.414966	0.348839	0.0548929	0	0	-0.366643	-0.137304	-0.139468	0.483764	0.280284	0	0	-0.240876	0.0279811	-0.225294	-0.114193	-0.231751	-0.135959	0.919987	0.540621	0	0	0.114831	-0.291756	0.0118802	0.52532	1.52404	0	0
0.23	2.96159	1.46789	-1.1086	0.525815	-0.31863	0.904238	0.354974	-0.0845139	-0.419671	0.37275	0.0576789	0	0	-0.34487	-0.158208	-0.138705	0.546216	0.241567	0	0	-0.245586	0.0376206	-0.227249	-0.110785	-0.233681	-0.124893	0.914575	0.534314	0	0	0.117132	-0.278538	0.00479476	0.439734	1.5708	0	0
0.24	2.88172	1.46638	-1.03028	0.527566	-0.305879	0.905036	0.35251	-0.0744044	-0.423662	0.391145	0.0610544	0	0	-0.313406	-0.179021	-0.135006	0.614436	0.194244	0	0	-0.245416	0.0470449	-0.227361	-0.107126	-0.236266	-0.111627	0.90878	0.525715	0	0	0.115679	-0.268374	0.0129935	0.363569	1.5708	0	0
0.25	2.7643	1.46942	-0.916349	0.529615	-0.293125	0.905241	0.355283	-0.0615927	-0.427122	0.40386	0.0650738	0	0	-0.270494	-0.200369	-0.130888	0.687896	0.138687	0	0	-0.236913	0.0561094	-0.22567	-0.104671	-0.24102	-0.0915661	0.903467	0.489721	0	0	0.108805	-0.261032	0.0390312	0.298795	1.5708	0	0
0.26	2.67773	1.47336	-0.832667	0.532645	-0.280079	0.905661	0.354671	-0.0485054	-0.426276	0.410038	0.067344	0	0	-0.228793	-0.229041	-0.129125	0.754093	0.0847386	0	0	-0.227859	0.0590296	-0.223163	-0.104526	-0.244197	-0.0721089	0.898205	0.452574	0	0	0.0980292	-0.256758	0.0744715	0.246336	1.5708	0	0
0.27	2.57552	1.47529	-0.737009	0.53477	-0.267404	0.906147	0.35074	-0.0346769	-0.42689	0.410075	0.071869	0	0	-0.187019	-0.242131	-0.117421	0.818312	0.0216526	0	0	-0.219068	0.0646986	-0.217507	-0.104059	-0.247032	-0.0590317	0.892407	0.441352	0	0	0.0837208	-0.252122	0.13087	0.205816	1.5708	0	0
0.28	2.48191	1.47594	-0.651998	0.537027	-0.254824	0.906806	0.344246	-0.0195392	-0.423566	0.406513	0.0759219	0	0	-0.146353	-0.253047	-0.1063	0.880394	-0.0384944	0	0	-0.211372	0.0696885	-0.209146	-0.10389	-0.24959	-0.0473638	0.886308	0.433619	0	0	0.0671504	-0.247426	0.193213	0.175309	1.5708	0	0
0.29	2.39127	1.47491	-0.570446	0.539246	-0.242215	0.907631	0.336113	-0.00291566	-0.417031	0.401332	0.0798929	0	0	-0.106252	-0.263684	-0.0956876	0.940994	-0.0904273	0	0	-0.203633	0.0750936	-0.198297	-0.10531	-0.252486	-0.0363692	0.879484	0.424549	0	0	0.0476535	-0.245	0.288402	0.156939	1.5708	0	0
0.3	2.33528	1.47204	-0.523286	0.541254	-0.229607	0.908959	0.324337	0.0130755	-0.40795	0.396842	0.0856954	0	0	-0.0712758	-0.272089	-0.0857586	0.996002	-0.124043	0	0	-0.199213	0.080018	-0.186323	-0.107565	-0.254981	-0.0278716	0.872721	0.416654	0	0	0.0274637	-0.243329	0.388401	0.148706	1.5708	0	0
0.31	2.32752	1.46937	-0.524145	0.543081	-0.2172	0.910906	0.309027	0.0259031	-0.396145	0.394295	0.0942192	0	0	-0.0425377	-0.27582	-0.0774953	1.0439	-0.131159	0	0	-0.199444	0.0821838	-0.174031	-0.109111	-0.256165	-0.0225096	0.865125	0.411652	0	0	0.00796107	-0.241697	0.467343	0.148809	1.5708	0	0
0.32	2.35096	1.4678	-0.556585	0.544875	-0.204955	0.91327	0.29136	0.0357529	-0.382372	0.391945	0.103189	0	0	-0.0167866	-0.275444	-0.0696181	1.09079	-0.115389	0	0	-0.202433	0.0812847	-0.160803	-0.110446	-0.255757	-0.0207837	0.856761	0.408878	0	0	-0.010475	-0.241108	0.535503	0.156701	1.5708	0	0
0.33	2.38942	1.46741	-0.604228	0.546678	-0.192902	0.915822	0.27248	0.0430589	-0.368197	0.388177	0.110472	0	0	0.00961822	-0.272339	-0.0611557	1.14142	-0.0764773	0	0	-0.20656	0.0780418	-0.147271	-0.112226	-0.254112	-0.0220673	0.849167	0.407925	0	0	-0.0276767	-0.24069	0.584745	0.169969	1.5708	0	0
0.34	2.43916	1.46798	-0.663114	0.548395	-0.181058	0.918502	0.252417	0.04785	-0.355192	0.3824	0.115944	0	0	0.0364438	-0.266502	-0.0527712	1.19056	-0.0273087	0	0	-0.211118	0.0729376	-0.13307	-0.115449	-0.251635	-0.0267336	0.843288	0.406976	0	0	-0.0423695	-0.241813	0.641595	0.186725	1.5708	0	0
0.35	2.50328	1.46874	-0.736424	0.550048	-0.169308	0.92136	0.230309	0.0504962	-0.344461	0.374375	0.120089	0	0	0.0619949	-0.258526	-0.0461932	1.23293	0.0175347	0	0	-0.217155	0.0666787	-0.121385	-0.117274	-0.249661	-0.0279773	0.83775	0.40619	0	0	-0.0587963	-0.236737	0.611564	0.20553	1.5708	0	0
0.36	2.56496	1.47055	-0.806098	0.551503	-0.157831	0.924135	0.208806	0.0513194	-0.336167	0.364443	0.123276	0	0	0.0900813	-0.248545	-0.0391768	1.26994	0.0535825	0	0	-0.221708	0.0595012	-0.110272	-0.12019	-0.247236	-0.0313519	0.832363	0.40483	0	0	-0.0730933	-0.232969	0.594586	0.22602	1.5708	0	0
